<svg width="1024" height="1024" viewBox="0 0 1024 1024" xmlns="http://www.w3.org/2000/svg">
  <!-- Rounded square background -->
  <rect width="1024" height="1024" rx="220" fill="#14141C" />
  
  <!-- Stylized letter R -->
  <path d="M 320 280 
           L 540 280 
           C 660 280 720 340 720 440 
           C 720 530 660 580 540 580 
           L 400 580 
           L 400 740 
           L 320 740 
           Z 
           M 400 360 
           L 400 500 
           L 530 500 
           C 590 500 630 470 630 430 
           C 630 390 590 360 530 360 
           Z" fill="#B8935B" />
           
  <!-- Leg of R -->
  <path d="M 500 580 
           L 660 740 
           L 760 740 
           L 580 580 
           Z" fill="#B8935B" />
           
  <!-- Document line details on the right -->
  <rect x="760" y="340" width="100" height="16" rx="8" fill="#B8935B" opacity="0.8" />
  <rect x="760" y="440" width="140" height="16" rx="8" fill="#B8935B" opacity="0.8" />
  <rect x="760" y="540" width="120" height="16" rx="8" fill="#B8935B" opacity="0.8" />
</svg>
